<?xml version="1.0" encoding="UTF-8"?>
<svg version="1.1" xmlns="http://www.w3.org/2000/svg" width="512" height="512">
<path d="M0 0 C0.84312744 -0.0049649 1.68625488 -0.00992981 2.55493164 -0.01504517 C5.3312259 -0.02959346 8.10746302 -0.03645668 10.88378906 -0.04199219 C11.83667061 -0.04481956 12.78955215 -0.04764694 13.7713089 -0.05056 C18.81433894 -0.06552347 23.85734059 -0.07477073 28.90039062 -0.07910156 C34.08959144 -0.08458054 39.27852912 -0.1086047 44.46764755 -0.13707352 C48.47585796 -0.15576843 52.48400585 -0.16090915 56.49225616 -0.16243744 C58.40427335 -0.16544925 60.31628983 -0.17342761 62.22826385 -0.18662262 C77.40545156 -0.28388527 89.35636744 0.71852831 101.08691406 11.28613281 C109.80829404 20.40666062 110.56206013 31.59564028 110.46191406 43.53613281 C110.45740234 44.55835938 110.45289063 45.58058594 110.44824219 46.63378906 C110.43651707 49.14296476 110.42010583 51.65201771 110.39941406 54.16113281 C111.48411987 54.15225037 112.56882568 54.14336792 113.68640137 54.13421631 C123.92628712 54.05300576 134.16610722 53.99310755 144.40624237 53.95388412 C149.67037922 53.93304076 154.93425536 53.90478241 160.19824219 53.859375 C165.28164724 53.81580147 170.36480207 53.79197126 175.44837952 53.78162384 C177.38440386 53.77425313 179.32041505 53.75985983 181.2563324 53.73821259 C183.97554747 53.70902553 186.69373855 53.70518317 189.41308594 53.70703125 C190.20718872 53.69265015 191.0012915 53.67826904 191.81945801 53.66345215 C197.99289654 53.70862607 203.35544773 55.2829449 207.93022919 59.60857773 C212.27540505 64.62732552 213.65473293 68.07605761 213.59472656 74.67675781 C213.58828125 75.92714844 213.58183594 77.17753906 213.57519531 78.46582031 C213.5584375 79.76777344 213.54167969 81.06972656 213.52441406 82.41113281 C213.51539063 83.72855469 213.50636719 85.04597656 213.49707031 86.40332031 C213.47349939 89.65610743 213.44059429 92.9085287 213.39941406 96.16113281 C214.34179932 96.30284912 215.28418457 96.44456543 216.25512695 96.59057617 C224.39802594 98.06817187 230.7430652 104.64815187 235.39941406 111.16113281 C240.76916004 120.04353659 239.85685758 129.80731679 239.64941406 139.78613281 C239.62931339 141.47491366 239.61106894 143.16371767 239.59472656 144.85253906 C239.55102421 148.95598392 239.4821967 153.05829793 239.39941406 157.16113281 C240.00218674 157.15225037 240.60495941 157.14336792 241.22599792 157.13421631 C247.50384023 157.0456716 253.78150494 156.98536892 260.05981445 156.94140625 C262.40233567 156.92130016 264.74480676 156.89401115 267.0871582 156.859375 C270.45569229 156.81081441 273.82356237 156.78815359 277.19238281 156.77050781 C278.23839157 156.74986267 279.28440033 156.72921753 280.36210632 156.70794678 C281.34274551 156.70764465 282.3233847 156.70734253 283.33374023 156.70703125 C284.19311691 156.6981488 285.05249359 156.68926636 285.93791199 156.68011475 C289.45480606 157.3673738 290.92555192 158.5596695 293.39941406 161.16113281 C293.8982587 164.2181305 294.07161763 166.71998067 294.02760315 169.77746582 C294.03469754 170.65602501 294.04179192 171.53458421 294.04910129 172.43976641 C294.06673197 175.38964857 294.04855072 178.33822195 294.03051758 181.28808594 C294.03565445 183.40039166 294.04293397 185.5126931 294.05220032 187.62498474 C294.07075191 193.36672957 294.05775181 199.10801146 294.03811002 204.84973717 C294.02175334 210.85234514 294.03053226 216.8549231 294.03562927 222.85754395 C294.04015356 232.93879614 294.02425952 243.019863 293.99633789 253.10107422 C293.96428461 264.76412207 293.96430071 276.42683558 293.98155266 288.08990717 C293.9974044 299.29939634 293.99069287 310.50876268 293.97361565 321.71824646 C293.9667346 326.49331421 293.96778843 331.26828382 293.9751606 336.04335022 C293.98280939 341.66423743 293.97074305 347.28474316 293.94331169 352.90556526 C293.93641203 354.97117543 293.93634672 357.03682113 293.94352722 359.10243034 C293.95218537 361.91698239 293.93632767 364.73034728 293.91407776 367.5447998 C293.92231853 368.36697384 293.93055929 369.18914788 293.93904978 370.03623629 C293.88882628 373.46591191 293.66263375 375.75006435 291.79424953 378.66790771 C288.57217987 380.67692894 286.35922752 380.66441823 282.56738281 380.66906738 C281.53743446 380.67842733 281.53743446 380.67842733 280.48667908 380.68797636 C278.18640786 380.70392849 275.88719309 380.69129449 273.58691406 380.67871094 C271.93765647 380.68413111 270.28840372 380.69125318 268.63916016 380.69995117 C264.15981191 380.71820007 259.68083181 380.71111062 255.20147705 380.69843483 C250.5161438 380.68831524 245.83084229 380.69769761 241.14550781 380.70397949 C233.27696059 380.71125894 225.4085635 380.70166041 217.54003906 380.68261719 C208.43995635 380.66084786 199.3402321 380.66789902 190.24015808 380.68992281 C182.43028187 380.70806835 174.62051364 380.71063928 166.81062317 380.70016813 C162.14468509 380.69392854 157.47891556 380.69311033 152.81298828 380.70631409 C148.42652589 380.7178597 144.04052612 380.70987068 139.65411377 380.68673706 C138.04324106 380.68144304 136.43232948 380.68297561 134.82147217 380.69178772 C132.62426906 380.70270021 130.42855332 380.68903422 128.23144531 380.66906738 C126.38643433 380.66680523 126.38643433 380.66680523 124.50415039 380.66449738 C120.79569937 380.06325378 119.64330894 379.11881629 117.39941406 376.16113281 C116.3064549 372.88225533 116.27900024 370.48845708 116.28588867 367.03735352 C116.28600952 365.7586438 116.28613037 364.47993408 116.28625488 363.16247559 C116.29129038 361.80395458 116.29645696 360.44543406 116.30175781 359.08691406 C116.30276489 357.85146851 116.30377197 356.61602295 116.30480957 355.34313965 C116.31004886 350.71996129 116.32401009 346.09679613 116.33691406 341.47363281 C116.35753906 331.14050781 116.37816406 320.80738281 116.39941406 310.16113281 C84.05941406 310.16113281 51.71941406 310.16113281 18.39941406 310.16113281 C18.39941406 325.01113281 18.39941406 339.86113281 18.39941406 355.16113281 C12.77424089 360.78630598 12.77424089 360.78630598 8.35986328 361.59912109 C7.38048798 361.78926788 6.40111267 361.97941467 5.39205933 362.17532349 C3.81402023 362.45060379 3.81402023 362.45060379 2.20410156 362.73144531 C0.55101486 363.04310135 0.55101486 363.04310135 -1.13546753 363.36105347 C-4.66238969 364.02108611 -8.1936307 364.65365182 -11.72558594 365.28613281 C-14.04752359 365.71799313 -16.36914259 366.15157052 -18.69042969 366.58691406 C-25.31977003 367.82144167 -31.95716075 369.00497571 -38.60058594 370.16113281 C-39.53409882 370.32440063 -40.46761169 370.48766846 -41.42941284 370.65588379 C-50.9263819 372.29879864 -60.2449967 373.72563512 -69.91308594 373.66113281 C-71.00097412 373.6546875 -72.0888623 373.64824219 -73.2097168 373.64160156 C-85.39995845 373.37842185 -97.21038117 371.319924 -109.15527344 369.00878906 C-113.30467349 368.20912084 -117.4631805 367.46608464 -121.62379456 366.72729492 C-125.3784121 366.05683548 -129.12931775 365.36706736 -132.87960815 364.67285156 C-134.7240397 364.33376849 -136.56952447 364.00036153 -138.41604614 363.67285156 C-141.01409724 363.20891702 -143.60612887 362.71953525 -146.19824219 362.22363281 C-146.97401611 362.09029541 -147.74979004 361.95695801 -148.54907227 361.81958008 C-152.0261227 361.12965844 -154.51626533 360.21081364 -157.59521484 358.39672852 C-160.91146532 353.04607505 -160.21030876 347.48669886 -160.08886719 341.32910156 C-160.07953406 339.96862592 -160.0724203 338.60813339 -160.06742859 337.24763489 C-160.04839724 333.67812164 -159.99933274 330.10963628 -159.94390869 326.54052734 C-159.89263097 322.89402164 -159.86989656 319.24734877 -159.84472656 315.60058594 C-159.79120777 308.45364249 -159.7033054 301.30756317 -159.60058594 294.16113281 C-166.03558594 292.67613281 -166.03558594 292.67613281 -172.60058594 291.16113281 C-172.69598198 299.27258173 -172.7488069 307.38093282 -172.72755623 315.49279976 C-172.71937133 319.25995204 -172.72953859 323.02516046 -172.78222656 326.79199219 C-172.83243312 330.4303785 -172.8336739 334.06584491 -172.80154037 337.70440292 C-172.79780058 339.08946923 -172.81144976 340.47469924 -172.84308243 341.85940933 C-172.93423439 346.14074934 -172.87693793 350.05681001 -171.60058594 354.16113281 C-168.58438333 357.06321818 -165.40995422 358.52932684 -161.60058594 360.16113281 C-157.69898726 364.06273149 -158.44037946 369.01165427 -158.43261719 374.25097656 C-158.42762459 375.42328575 -158.42762459 375.42328575 -158.42253113 376.61927795 C-158.41747772 378.26920993 -158.41512231 379.91915209 -158.4152832 381.5690918 C-158.41309667 384.08627223 -158.39492435 386.60301422 -158.37597656 389.12011719 C-158.37304227 390.72623549 -158.37105771 392.33235586 -158.37011719 393.93847656 C-158.36293167 394.68757797 -158.35574615 395.43667938 -158.3483429 396.20848083 C-158.36610861 400.29363561 -158.66349479 403.53093046 -160.60058594 407.16113281 C-163.49642547 409.64328098 -165.08732678 410.15144868 -168.91308594 410.22363281 C-173.69025665 408.8471599 -176.85129935 406.34559181 -180.60058594 403.16113281 C-181.65246094 403.75925781 -182.70433594 404.35738281 -183.78808594 404.97363281 C-184.43132812 405.33457031 -185.07457031 405.69550781 -185.73730469 406.06738281 C-187.75288206 407.21029932 -187.75288206 407.21029932 -190.10058594 408.97363281 C-193.65344254 410.6612397 -195.86368962 410.19915957 -199.60058594 409.16113281 C-201.67747495 407.36405695 -202.49529118 405.8874445 -202.88989258 403.16552734 C-203.03254436 400.60739436 -203.0687672 398.06702405 -203.06933594 395.50488281 C-203.07694946 394.56559937 -203.08456299 393.62631592 -203.09240723 392.65856934 C-203.10320095 390.67491309 -203.10606429 388.69120004 -203.1015625 386.70751953 C-203.10058928 383.67156459 -203.14223698 380.63812969 -203.18652344 377.60253906 C-203.19172986 375.67415892 -203.19441864 373.74576999 -203.19433594 371.81738281 C-203.2107312 370.91000366 -203.22712646 370.00262451 -203.24401855 369.06774902 C-203.17527256 362.80531642 -203.17527256 362.80531642 -200.50097656 359.80761719 C-197.60058594 358.16113281 -197.60058594 358.16113281 -193.84448242 356.86523438 C-191.94429204 355.93103796 -191.94429204 355.93103796 -190.60058594 354.16113281 C-189.50600095 349.10123438 -189.64568562 344.04387722 -189.69824219 338.89550781 C-189.68885672 337.3766262 -189.67639866 335.85776073 -189.66099548 334.33892822 C-189.62875581 330.34700419 -189.63821587 326.35622837 -189.65637207 322.36425781 C-189.66752656 318.28860892 -189.63923011 314.21325464 -189.61425781 310.13769531 C-189.57109787 302.14526838 -189.57199018 294.15362358 -189.60058594 286.16113281 C-190.38433594 285.89300781 -191.16808594 285.62488281 -191.97558594 285.34863281 C-194.60058594 284.16113281 -194.60058594 284.16113281 -196.60058594 281.16113281 C-197.03808594 277.78613281 -197.03808594 277.78613281 -196.60058594 274.16113281 C-193.25250656 270.10183588 -190.52349229 268.42020701 -185.46508789 267.12475586 C-184.25065506 266.80480148 -183.03622223 266.48484711 -181.7849884 266.15519714 C-180.46972512 265.82730524 -179.15434858 265.49986734 -177.83886719 265.17285156 C-176.48279637 264.822716 -175.12710314 264.47111504 -173.77177429 264.11811829 C-170.21720338 263.1968344 -166.65757237 262.29681835 -163.09655762 261.40081787 C-160.18373979 260.66418616 -157.27483853 259.91275808 -154.36602497 259.1604948 C-148.36391941 257.60846282 -142.35884358 256.06798622 -136.34790039 254.55053711 C-134.75169609 254.14680122 -134.75169609 254.14680122 -133.12324524 253.73490906 C-130.60058594 253.16113281 -130.60058594 253.16113281 -128.60058594 253.16113281 C-128.56907185 241.17336323 -128.57522182 229.18625525 -128.62905216 217.19854736 C-128.6528751 211.63168817 -128.66387212 206.06542705 -128.64526367 200.49853516 C-128.62777157 195.12298146 -128.64435453 189.74850064 -128.68426323 184.37307739 C-128.69353565 182.32546843 -128.69066524 180.27776624 -128.67527962 178.23019409 C-128.02266829 165.82146273 -128.02266829 165.82146273 -133.03442383 155.04272461 C-134.20966747 154.06575055 -135.3968374 153.10276194 -136.60058594 152.16113281 C-138.56152344 148.93066406 -138.56152344 148.93066406 -139.97558594 145.97363281 C-140.69875 144.49830078 -140.69875 144.49830078 -141.43652344 142.99316406 C-143.40561992 138.20257698 -143.73297035 133.81629826 -143.77758789 128.66186523 C-143.79684074 126.71910957 -143.79684074 126.71910957 -143.81648254 124.73710632 C-143.82465088 123.33027533 -143.83209443 121.92343997 -143.83886719 120.51660156 C-143.84294271 119.80302301 -143.84701824 119.08944447 -143.85121727 118.35424232 C-143.87202372 114.57788005 -143.88634935 110.80155354 -143.89575195 107.02514648 C-143.90681172 103.14154469 -143.9412215 99.25851654 -143.98092365 95.3751173 C-144.00716386 92.37322481 -144.01545023 89.37146767 -144.01903343 86.3694706 C-144.02387945 84.93863356 -144.03543641 83.50780176 -144.05407143 82.07707787 C-144.15234849 74.03257795 -144.09498208 67.98317066 -139.60058594 61.16113281 C-137.56542969 59.10253906 -137.56542969 59.10253906 -135.53808594 57.72363281 C-134.86648437 57.25054687 -134.19488281 56.77746094 -133.50292969 56.29003906 C-129.18217543 53.7259775 -124.94495133 54.02635841 -120.09008789 54.04760742 C-119.22158203 54.0474614 -118.35307617 54.04731537 -117.45825195 54.04716492 C-114.58509837 54.04786206 -111.71200946 54.05564521 -108.83886719 54.06347656 C-106.84775325 54.06534145 -104.85663885 54.06676502 -102.86552429 54.06776428 C-97.62286107 54.07158391 -92.38022552 54.0814095 -87.13757324 54.09246826 C-81.78865941 54.10269428 -76.4397411 54.10726446 -71.09082031 54.11230469 C-60.59406336 54.12303223 -50.09732695 54.14010204 -39.60058594 54.16113281 C-39.6215332 53.39559082 -39.64248047 52.63004883 -39.6640625 51.84130859 C-39.74796955 48.32305396 -39.7994819 44.80501078 -39.85058594 41.28613281 C-39.88410156 40.08214844 -39.91761719 38.87816406 -39.95214844 37.63769531 C-40.07931313 25.93854367 -37.34076254 17.93594627 -29.23730469 9.43066406 C-20.46047675 1.87609069 -11.26399639 0.0160283 0 0 Z M-18.77880859 23.07885742 C-23.09404645 29.57029435 -23.335614 35.06611277 -22.97558594 42.72363281 C-22.94851562 43.82771484 -22.92144531 44.93179688 -22.89355469 46.06933594 C-22.8234415 48.76869366 -22.72523878 51.46383704 -22.60058594 54.16113281 C-20.62058594 54.16113281 -18.64058594 54.16113281 -16.60058594 54.16113281 C-16.58600342 53.55640137 -16.5714209 52.95166992 -16.55639648 52.32861328 C-16.48149405 49.56384016 -16.38497521 46.80021924 -16.28808594 44.03613281 C-16.25424805 42.60914063 -16.25424805 42.60914063 -16.21972656 41.15332031 C-16.01696058 35.84453832 -15.73826191 31.6558357 -12.60058594 27.16113281 C-8.86116085 24.48031762 -4.64934574 24.8726678 -0.23950195 24.88647461 C0.60161133 24.88136368 1.44272461 24.87625275 2.30932617 24.87098694 C5.08812588 24.85709349 7.86667751 24.85804749 10.64550781 24.86035156 C12.57837516 24.85646455 14.51124166 24.85212987 16.44410706 24.84736633 C20.49507415 24.8399047 24.54595409 24.84019504 28.59692383 24.84545898 C33.78669835 24.85125409 38.97611604 24.83432131 44.16583157 24.81111431 C48.15755802 24.7963787 52.14919851 24.79550503 56.14094734 24.79862404 C58.0542986 24.79811076 59.96765466 24.79287177 61.88097954 24.78281212 C64.55720042 24.77046816 67.23272571 24.77722701 69.90893555 24.78881836 C71.09281609 24.77735275 71.09281609 24.77735275 72.3006134 24.76565552 C76.8453809 24.8091385 79.78190981 25.34951715 83.39941406 28.16113281 C85.46695246 31.15376713 85.68834282 33.7770904 85.81347656 37.36425781 C85.85214844 38.34394531 85.89082031 39.32363281 85.93066406 40.33300781 C85.96160156 41.34878906 85.99253906 42.36457031 86.02441406 43.41113281 C86.06308594 44.44238281 86.10175781 45.47363281 86.14160156 46.53613281 C86.2357308 49.07762221 86.32136385 51.61910714 86.39941406 54.16113281 C88.70941406 54.16113281 91.01941406 54.16113281 93.39941406 54.16113281 C93.45806442 50.97371167 93.49322665 47.78643163 93.52441406 44.59863281 C93.54955078 43.25575195 93.54955078 43.25575195 93.57519531 41.88574219 C93.62480174 35.1144645 93.37667484 28.81043316 88.77441406 23.41113281 C88.32839844 22.85941406 87.88238281 22.30769531 87.42285156 21.73925781 C81.86113499 17.40154836 75.61842474 16.71644595 68.83129883 16.75708008 C68.01553375 16.75021683 67.19976868 16.74335358 66.35928345 16.73628235 C63.6862809 16.71811288 61.01387083 16.72183759 58.34082031 16.72753906 C56.46809195 16.72297258 54.59536527 16.71766562 52.72264099 16.71165466 C48.80647962 16.70274294 44.89052239 16.70512462 40.97436523 16.71508789 C35.97330067 16.72657594 30.97294239 16.70635866 25.97197056 16.67717075 C22.10702593 16.65876321 18.24224915 16.65911026 14.37727165 16.66480827 C12.53420966 16.66496093 10.69113589 16.65896324 8.84811592 16.6465168 C-6.01797873 16.27675818 -6.01797873 16.27675818 -18.77880859 23.07885742 Z M0.39941406 41.16113281 C0.39941406 45.45113281 0.39941406 49.74113281 0.39941406 54.16113281 C23.16941406 54.16113281 45.93941406 54.16113281 69.39941406 54.16113281 C69.39941406 49.87113281 69.39941406 45.58113281 69.39941406 41.16113281 C46.62941406 41.16113281 23.85941406 41.16113281 0.39941406 41.16113281 Z M-126.60058594 73.16113281 C-126.9214812 75.72620148 -126.9214812 75.72620148 -126.89111328 78.75317383 C-126.90387299 79.92521866 -126.91663269 81.09726349 -126.92977905 82.30482483 C-126.9320047 83.57869553 -126.93423035 84.85256622 -126.93652344 86.16503906 C-126.94318024 87.4726268 -126.94983704 88.78021454 -126.95669556 90.12742615 C-126.96868735 92.90244845 -126.97237498 95.67734618 -126.97119141 98.45239258 C-126.97098931 101.98742666 -126.99816762 105.52164685 -127.03273582 109.05648899 C-127.06051555 112.44684904 -127.05915928 115.83706694 -127.06152344 119.22753906 C-127.07589447 120.48724014 -127.0902655 121.74694122 -127.10507202 123.04481506 C-127.05788315 132.20235328 -125.52959214 139.74352178 -119.18261719 146.70410156 C-90.29447318 173.30972555 -36.97632796 177.9204594 0.39941406 177.16113281 C0.81191406 176.30390625 1.22441406 175.44667969 1.64941406 174.56347656 C7.04671341 163.87730576 12.62380818 157.40306208 24.05566406 153.04394531 C33.8938802 150.44647236 44.47061853 151.13868532 53.39941406 156.16113281 C61.44641986 161.6934493 65.68416694 168.23547814 69.39941406 177.16113281 C85.20420565 176.70597993 100.728794 175.25120422 116.39941406 173.16113281 C116.49738281 172.3296875 116.59535156 171.49824219 116.69628906 170.64160156 C116.92058594 169.01158203 116.92058594 169.01158203 117.14941406 167.34863281 C117.28863281 166.2696875 117.42785156 165.19074219 117.57128906 164.07910156 C118.55869934 160.59987762 119.34980091 159.97739258 122.39941406 158.16113281 C124.74066162 157.7624054 124.74066162 157.7624054 127.3515625 157.72875977 C128.33227722 157.70896561 129.31299194 157.68917145 130.32342529 157.66877747 C131.37459534 157.66238754 132.42576538 157.65599762 133.50878906 157.64941406 C134.59073547 157.63146286 135.67268188 157.61351166 136.78741455 157.59501648 C140.24137481 157.54085645 143.69519641 157.50699878 147.14941406 157.47363281 C149.4918813 157.44046485 151.83433022 157.40597568 154.17675781 157.37011719 C159.9175189 157.2851267 165.65829781 157.21680083 171.39941406 157.16113281 C171.41343262 155.60386475 171.41343262 155.60386475 171.42773438 154.01513672 C171.46796511 150.11953683 171.53381077 146.22469956 171.60693359 142.32958984 C171.6349532 140.65195602 171.65626116 138.97419485 171.67041016 137.29638672 C171.78278104 124.71833959 172.43763572 114.50921282 181.46972656 104.91503906 C185.99327663 100.80355327 190.74563318 98.42264517 196.39941406 96.16113281 C196.39941406 88.24113281 196.39941406 80.32113281 196.39941406 72.16113281 C193.67463254 70.79874205 191.53100551 71.04143323 188.48095703 71.04760742 C186.61925369 71.04772072 186.61925369 71.04772072 184.71994019 71.0478363 C183.36049357 71.05294331 182.00104737 71.05815931 180.64160156 71.06347656 C179.25440522 71.06534139 177.86720822 71.06676499 176.48001099 71.06776428 C172.82706894 71.07158434 169.17416659 71.08141026 165.52124023 71.09246826 C161.79443906 71.10269338 158.06763147 71.10726426 154.34082031 71.11230469 C147.02700012 71.12303298 139.71321265 71.14010327 132.39941406 71.16113281 C132.38539551 72.45361938 132.38539551 72.45361938 132.37109375 73.7722168 C132.32673164 77.00999862 132.26496339 80.2468793 132.19189453 83.48413086 C132.16390036 84.877565 132.14258001 86.27115157 132.12841797 87.66479492 C132.02814138 96.98048971 131.60310196 105.0639485 125.46972656 112.50097656 C124.82777344 113.02820313 124.18582031 113.55542969 123.52441406 114.09863281 C122.88761719 114.64390625 122.25082031 115.18917969 121.59472656 115.75097656 C116.89714434 118.76846265 112.32162604 119.41227542 106.82281494 119.42855835 C104.86320831 119.4413533 104.86320831 119.4413533 102.86401367 119.45440674 C101.42822253 119.4537078 99.99243149 119.45278479 98.55664062 119.45166016 C97.03505118 119.45764872 95.51346477 119.46445502 93.99188232 119.47201538 C89.86771445 119.48965125 85.74362962 119.4943698 81.61942768 119.49564695 C79.03932398 119.49707071 76.45924124 119.5013446 73.87914276 119.50664139 C64.86798264 119.5251351 55.8568816 119.533313 46.84570312 119.53173828 C38.46257577 119.53053771 30.07970622 119.55162517 21.69664407 119.58322561 C14.48622313 119.60943143 7.27588616 119.62010374 0.065418 119.61882746 C-4.23518459 119.61831901 -8.53555807 119.62393721 -12.83611298 119.64518356 C-16.88443326 119.66463825 -20.93230763 119.6646415 -24.98064423 119.6501503 C-26.4600083 119.64806988 -27.93940082 119.65271706 -29.41871643 119.66487122 C-38.41687038 119.73396683 -47.31396561 119.65420477 -54.49807358 113.54846764 C-62.24872493 105.62256004 -62.10110651 95.04276924 -62.28808594 84.59863281 C-62.32224609 83.30376953 -62.35640625 82.00890625 -62.39160156 80.67480469 C-62.47351286 77.50366738 -62.5428499 74.33278687 -62.60058594 71.16113281 C-70.64982577 71.11484446 -78.69901023 71.07928155 -86.74835014 71.05750847 C-90.48576424 71.04705983 -94.22308744 71.03288111 -97.96044922 71.01025391 C-101.56549094 70.98856377 -105.1704451 70.97657233 -108.77554703 70.97137833 C-110.15270492 70.96767565 -111.52985788 70.96044547 -112.90697861 70.9496727 C-114.83198139 70.93520947 -116.75707181 70.93431634 -118.68212891 70.93408203 C-120.32760208 70.9274202 -120.32760208 70.9274202 -122.00631714 70.92062378 C-124.76292906 70.89760053 -124.76292906 70.89760053 -126.60058594 73.16113281 Z M19.39941406 176.16113281 C16.16353177 181.07074733 15.64812476 185.43898415 16.39941406 191.16113281 C18.51771531 196.95858887 22.03726767 200.6042636 27.14941406 203.97363281 C32.94088539 206.08974734 38.07094926 206.05776194 43.71191406 203.47363281 C48.4416825 200.81255037 51.28643308 197.11816837 53.39941406 192.16113281 C54.3718101 185.56931127 53.83372631 180.27177024 49.89941406 174.81738281 C46.49470625 171.05801793 42.4507791 168.46336325 37.34863281 167.95800781 C29.4050976 167.79337496 24.66387427 170.04297636 19.39941406 176.16113281 Z M133.39941406 174.16113281 C133.39941406 236.53113281 133.39941406 298.90113281 133.39941406 363.16113281 C180.58941406 363.16113281 227.77941406 363.16113281 276.39941406 363.16113281 C276.39941406 300.79113281 276.39941406 238.42113281 276.39941406 174.16113281 C264.18941406 174.16113281 251.97941406 174.16113281 239.39941406 174.16113281 C239.06941406 179.44113281 238.73941406 184.72113281 238.39941406 190.16113281 C234.575285 193.98526188 233.30681086 194.28609087 228.09521484 194.30639648 C226.98711456 194.31277634 225.87901428 194.31915619 224.73733521 194.32572937 C223.53527435 194.32684219 222.3332135 194.32795502 221.09472656 194.32910156 C219.86406464 194.33242996 218.63340271 194.33575836 217.365448 194.33918762 C214.75779597 194.34425846 212.15013743 194.3465959 209.54248047 194.34643555 C206.86728165 194.34635418 204.19225364 194.35330873 201.51708984 194.36694336 C197.6679152 194.38522753 193.81894024 194.39017058 189.96972656 194.39160156 C188.77171417 194.39878708 187.57370178 194.4059726 186.33938599 194.41337585 C185.22498138 194.41029922 184.11057678 194.4072226 182.96240234 194.40405273 C181.49252365 194.40619026 181.49252365 194.40619026 179.99295044 194.40837097 C177.28905735 194.15061266 175.66942638 193.63027205 173.39941406 192.16113281 C170.69961983 186.76154435 171.775987 180.1862998 171.39941406 174.16113281 C158.85941406 174.16113281 146.31941406 174.16113281 133.39941406 174.16113281 Z M-79.44677734 257.18066406 C-80.25661575 257.39524261 -81.06645416 257.60982117 -81.90083313 257.8309021 C-84.58523369 258.54280013 -87.26868648 259.25820563 -89.95214844 259.97363281 C-91.81011325 260.46709381 -93.66813605 260.96033655 -95.5262146 261.45336914 C-100.42257967 262.7532274 -105.31814904 264.05605839 -110.21356201 265.35949707 C-115.20667876 266.68839118 -120.20053762 268.01449022 -125.19433594 269.34082031 C-134.99715018 271.9448465 -144.7991266 274.55201181 -154.60058594 277.16113281 C-151.29412447 279.36544046 -148.18091942 280.22848395 -144.39453125 281.20825195 C-143.66406586 281.40200912 -142.93360046 281.5957663 -142.18099976 281.7953949 C-139.76500962 282.43463202 -137.34695519 283.06563759 -134.92871094 283.69628906 C-133.24572897 284.13905885 -131.56284867 284.58221524 -129.88006592 285.02574158 C-126.35033385 285.95474063 -122.81960283 286.87981162 -119.28808594 287.80200195 C-114.7728368 288.98129144 -110.25986487 290.16903118 -105.74757767 291.35959721 C-102.27042427 292.2762538 -98.79224991 293.18898471 -95.31374359 294.10049248 C-93.65017651 294.5367898 -91.98688815 294.97415136 -90.32389069 295.41261482 C-87.99166319 296.02676537 -85.65814745 296.63575935 -83.32421875 297.2434082 C-82.64344269 297.42368561 -81.96266663 297.60396301 -81.26126099 297.78970337 C-73.49964303 299.79723992 -67.92611083 300.41361311 -60.27856445 298.25512695 C-59.47774948 298.04069443 -58.67693451 297.8262619 -57.85185242 297.60533142 C-55.22411138 296.89833383 -52.60198288 296.17249644 -49.97949219 295.44628906 C-48.15135434 294.95044134 -46.32289334 294.45578364 -44.49412537 293.96226501 C-39.69540872 292.66384659 -34.9012394 291.34935836 -30.10784912 290.03143311 C-25.21029408 288.68794769 -20.30859521 287.35976455 -15.40722656 286.03027344 C-5.80090443 283.42215534 3.8006816 280.79703535 13.39941406 278.16113281 C9.71820576 276.06593497 5.79045659 275.07273692 1.72509766 274.00634766 C0.57324226 273.6986721 0.57324226 273.6986721 -0.60188293 273.38478088 C-3.13418452 272.70958368 -5.66810613 272.04070219 -8.20214844 271.37207031 C-9.96292228 270.90441418 -11.7236125 270.43644308 -13.48422241 269.96817017 C-17.17040477 268.98874552 -20.85735728 268.01229318 -24.54492188 267.03808594 C-29.2787465 265.78734366 -34.01093514 264.53053971 -38.74260902 263.27168846 C-42.37595396 262.30551597 -46.00996642 261.34187545 -49.644207 260.37907791 C-51.389944 259.91639724 -53.1355118 259.45307766 -54.88090897 258.98911667 C-57.31497764 258.3426406 -59.74988116 257.69941387 -62.18505859 257.05712891 C-62.91029221 256.86390549 -63.63552582 256.67068207 -64.38273621 256.47160339 C-70.17484997 254.95017462 -73.74076161 255.65408262 -79.44677734 257.18066406 Z " fill="#56A4FF" transform="translate(210.6005859375,50.8388671875)"/>
<path d="M0 0 C5.48282915 1.82760972 10.63215569 3.6462008 15.9375 5.8125 C34.03914114 12.70372399 53.00061584 15.49817188 72.125 17.8125 C73.42653519 17.9703447 73.42653519 17.9703447 74.75436401 18.13137817 C84.73072406 19.32387667 94.67429457 20.26601361 104.71044922 20.76049805 C107.5875531 20.96997103 110.22770733 21.20432303 113 22 C114.08203125 24.1875 114.08203125 24.1875 114.8125 27 C117.76957342 36.0114767 122.85991364 41.19240688 131.25 45.5 C140.45417615 49.79210287 148.93077146 50.2443519 158.62109375 46.96875 C168.28158835 43.03475548 174.81643797 36.23845227 179.2734375 26.859375 C180.02808581 24.92812449 180.51412803 23.01342003 181 21 C182.64814697 20.87153687 182.64814697 20.87153687 184.32958984 20.74047852 C188.44849093 20.41914399 192.56727851 20.09637359 196.68603516 19.77319336 C198.4607446 19.63413632 200.23548366 19.49545657 202.01025391 19.35717773 C204.57722938 19.15710677 207.14409144 18.95562998 209.7109375 18.75390625 C210.49052826 18.6934462 211.27011902 18.63298615 212.07333374 18.57069397 C217.72731146 18.1244456 223.35326643 17.56467336 229 17 C229 51.32 229 85.64 229 121 C197.65 121 166.3 121 134 121 C137.09262493 119.45368754 139.50448841 118.48116468 142.7734375 117.59765625 C143.6809375 117.34693359 144.5884375 117.09621094 145.5234375 116.83789062 C147.41621622 116.32321038 149.30944292 115.8101746 151.203125 115.29882812 C156.11586702 113.93843002 160.54700945 112.49456828 165 110 C165 107.03 165 104.06 165 101 C159.64709842 97.95919204 154.13891493 96.59123399 148.1875 95.125 C141.35231785 93.39601605 134.55437483 91.6261996 127.8125 89.5625 C117.82004777 86.53180851 107.66498037 84.12666764 97.53125 81.62109375 C91.07270582 80.02377039 84.6412961 78.35023431 78.22167969 76.60253906 C75.33932114 75.82081808 72.45478519 75.04732042 69.5703125 74.2734375 C67.21352421 73.64069001 64.85675352 73.00787699 62.5 72.375 C61.3764209 72.07335937 60.2528418 71.77171875 59.09521484 71.4609375 C58.02223145 71.1721875 56.94924805 70.8834375 55.84375 70.5859375 C54.82023437 70.31362305 53.79671875 70.04130859 52.7421875 69.76074219 C50.5473374 69.15184325 48.37736884 68.45353537 46.21875 67.7265625 C38.68728596 66.02649901 31.02020676 68.90618575 23.75 70.875 C15.84820478 72.98568087 7.93629404 75.01592649 0 77 C0 51.59 0 26.18 0 0 Z " fill="#99C8FF" transform="translate(99,223)"/>
<path d="M0 0 C7.69952604 5.4555106 11.53293717 13.2547405 13.3125 22.375 C14.55020847 31.43433838 11.06523735 39.83617524 6.3125 47.375 C7.03824219 47.63410156 7.76398438 47.89320313 8.51171875 48.16015625 C19.91590148 53.10674039 27.51262707 63.69997663 32.25 74.8125 C34.16888969 79.69753781 35.47684794 84.05430053 35.6875 89.3125 C35.73648438 90.14652344 35.78546875 90.98054688 35.8359375 91.83984375 C35.04210342 95.68460733 33.39233142 96.97861828 30.3125 99.375 C27.15035329 100.10277048 24.06169119 100.04855806 20.828125 100.00610352 C19.87957642 100.01325882 18.93102783 100.02041412 17.95373535 100.02778625 C14.82283148 100.04467484 11.69335913 100.02526914 8.5625 100.00390625 C6.3844389 100.00473493 4.20637786 100.00719427 2.02832031 100.01121521 C-2.53469688 100.01407333 -7.09722325 99.99937006 -11.66015625 99.97192383 C-17.50807071 99.93784152 -23.35510749 99.94385939 -29.20306396 99.9625864 C-33.70010691 99.97315671 -38.19694576 99.96421818 -42.69396973 99.94920158 C-44.85013218 99.94401957 -47.00631595 99.94450179 -49.16247559 99.95074654 C-52.17649136 99.95619895 -55.18925222 99.93582196 -58.203125 99.90844727 C-59.53893616 99.91823608 -59.53893616 99.91823608 -60.9017334 99.92822266 C-65.0160399 99.86470638 -67.16606113 99.69688386 -70.7409668 97.49009705 C-73.10119128 94.92548431 -73.33719861 93.82190992 -73.25 90.375 C-72.57574396 76.68942466 -65.55977545 63.70843781 -55.6875 54.375 C-46.82083333 47.375 -46.82083333 47.375 -43.6875 47.375 C-44.02523438 46.80652344 -44.36296875 46.23804688 -44.7109375 45.65234375 C-50.27199921 36.02495657 -52.37580803 27.24781093 -49.625 16.3125 C-46.94442158 8.30851938 -41.23917578 1.25741396 -33.6875 -2.625 C-21.83445729 -7.5704418 -10.92208058 -6.57516557 0 0 Z M-48 71.9375 C-52.09181785 76.638131 -52.09181785 76.638131 -53.6875 82.375 C-30.5875 82.375 -7.4875 82.375 16.3125 82.375 C9.94145504 69.63291009 5.07397488 64.73877929 -7.6875 59.375 C-22.69437968 54.4227297 -37.98463669 60.64566882 -48 71.9375 Z " fill="#57A4FF" transform="translate(434.6875,255.625)"/>
<path d="M0 0 C4.75519607 1.04033501 9.50081728 2.08520887 14.20703125 3.33203125 C15.11308105 3.57058838 16.01913086 3.80914551 16.95263672 4.05493164 C17.8963916 4.3049292 18.84014648 4.55492676 19.8125 4.8125 C28.13555802 7.0048597 36.47209755 9.12383967 44.83422852 11.16186523 C48.8423814 12.15391033 52.80211666 13.22014619 56.7421875 14.45703125 C57.50225098 14.69413818 58.26231445 14.93124512 59.04541016 15.17553711 C60.45867374 15.62393137 61.86776738 16.08582301 63.27099609 16.56469727 C70.72143903 18.93614859 77.27539119 17.09374631 84.6875 15.3125 C85.41606201 15.13952393 86.14462402 14.96654785 86.89526367 14.78833008 C93.44879554 13.19848539 99.91102384 11.32788588 106.38256836 9.4362793 C114.29294266 7.14872541 122.26038533 5.11618913 130.25 3.125 C131.49499268 2.81457764 132.73998535 2.50415527 134.02270508 2.18432617 C142.85320933 0 142.85320933 0 144 0 C144 15.51 144 31.02 144 47 C136.18387365 48.95403159 128.59955297 50.70171639 120.6875 52 C114.10007683 53.10888999 107.53946771 54.26060105 101 55.625 C75.15921512 60.84449628 53.36771307 58.3049369 27.88427734 52.84594727 C20.70764352 51.31689104 13.52125313 50.00533821 6.26733398 48.90039062 C1.09788955 48.09788955 1.09788955 48.09788955 0 47 C-0.09304018 45.52645652 -0.11746265 44.04849409 -0.11352539 42.57202148 C-0.11344986 41.63112167 -0.11337433 40.69022186 -0.11329651 39.72080994 C-0.10813522 38.69790359 -0.10297394 37.67499725 -0.09765625 36.62109375 C-0.0962413 35.57929459 -0.09482635 34.53749542 -0.09336853 33.46412659 C-0.0877508 30.12188906 -0.0751953 26.77971743 -0.0625 23.4375 C-0.05748728 21.17773534 -0.05292398 18.91796963 -0.04882812 16.65820312 C-0.03777561 11.10544609 -0.02102024 5.55272775 0 0 Z " fill="#99C8FF" transform="translate(68,349)"/>
<path d="M0 0 C53.46 0 106.92 0 162 0 C162 9.24 162 18.48 162 28 C155.87664381 34.12335619 155.87664381 34.12335619 149.12979126 34.13371277 C147.87911362 34.13797775 146.62843597 34.14224274 145.33985901 34.14663696 C143.94613644 34.14628742 142.5524139 34.14582587 141.15869141 34.14526367 C139.69692397 34.14825449 138.23515732 34.15165684 136.77339172 34.15544128 C132.79609149 34.1642939 128.81881275 34.16661994 124.84150362 34.16725707 C121.52386477 34.16820532 118.20623095 34.1718827 114.88859403 34.17542917 C107.06212 34.1835787 99.23565747 34.18601297 91.40917969 34.18530273 C83.33056414 34.18470196 75.25201538 34.19525251 67.17341673 34.2110464 C60.24258249 34.2241145 53.3117701 34.22948693 46.38092363 34.22884732 C42.23925264 34.2285921 38.09764095 34.23145667 33.95598221 34.24202538 C30.06050379 34.25169398 26.16514151 34.25179409 22.26965904 34.24450874 C20.8393849 34.24346132 19.40910358 34.24583513 17.97884178 34.2518692 C16.02730111 34.25956953 14.07572101 34.25375382 12.12417603 34.24723816 C11.0316836 34.24778293 9.93919117 34.24832769 8.81359291 34.24888897 C5.96098529 33.99654878 4.3614889 33.58863247 2 32 C-3.92834708 23.10747937 0 10.68747969 0 0 Z " fill="#98C8FF" transform="translate(165,121)"/>
<path d="M0 0 C4.74168013 2.82357439 7.5184491 6.57671986 9.8125 11.5625 C10.58003022 15.81751753 10.5161214 19.94168124 10.3984375 24.25390625 C10.38994781 25.43975815 10.38145813 26.62561005 10.37271118 27.84739685 C10.33932231 31.60755091 10.2640623 35.36550219 10.1875 39.125 C10.157382 41.68551575 10.13000944 44.24606535 10.10546875 46.80664062 C10.04469646 53.06010978 9.92724566 59.30886128 9.8125 65.5625 C-2.0675 65.5625 -13.9475 65.5625 -26.1875 65.5625 C-26.30251381 58.01759402 -26.4019939 50.47574939 -26.4621582 42.93066406 C-26.48724698 40.36610589 -26.52132586 37.80161883 -26.56469727 35.23730469 C-26.625593 31.54344093 -26.65376764 27.85052549 -26.67578125 24.15625 C-26.70158768 23.0163562 -26.7273941 21.8764624 -26.75398254 20.70202637 C-26.75644568 13.65470963 -25.80468683 9.0053806 -21.1875 3.5625 C-15.11612805 -2.36078971 -7.70033904 -3.16813949 0 0 Z " fill="#99C8FF" transform="translate(424.1875,163.4375)"/>
<path d="M0 0 C1.59838715 -0.01292336 1.59838715 -0.01292336 3.22906494 -0.02610779 C6.74931161 -0.04879966 10.26876436 -0.04202293 13.7890625 -0.03295898 C16.23616778 -0.03819287 18.68327103 -0.04446848 21.13037109 -0.05174255 C26.25823461 -0.06215258 31.38582073 -0.05757596 36.51367188 -0.04296875 C43.08804133 -0.02577487 49.66153734 -0.04928175 56.23580933 -0.08445835 C61.28871462 -0.10640726 66.34141009 -0.10499693 71.39434814 -0.09669304 C73.81847085 -0.09587226 76.24260877 -0.10275967 78.66668701 -0.11746407 C82.05438114 -0.13486388 85.44049478 -0.12040373 88.828125 -0.09765625 C89.83087463 -0.10934845 90.83362427 -0.12104065 91.86676025 -0.13308716 C96.51617505 -0.06949742 98.7152953 0.0141216 102.53662109 2.85414124 C104.4140625 5.53344727 104.4140625 5.53344727 105.0390625 9.03344727 C104.2246906 13.59392992 103.12729673 14.77258213 99.4140625 17.53344727 C95.8875078 18.27310118 92.42086898 18.21668293 88.828125 18.18041992 C87.76253357 18.18918152 86.69694214 18.19794312 85.59906006 18.20697021 C82.078646 18.22896687 78.55948921 18.21440926 75.0390625 18.19750977 C72.59195718 18.20087779 70.1448535 18.20573029 67.69775391 18.21200562 C62.56982492 18.21937736 57.44233148 18.20866093 52.31445312 18.18530273 C45.74005465 18.15681571 39.16667671 18.17321793 32.59231567 18.20316505 C27.53939112 18.2212293 22.48670868 18.2154838 17.43377686 18.20252609 C15.00966267 18.19918971 12.58552654 18.20328723 10.16143799 18.21492386 C6.77369937 18.22761729 3.38761531 18.20827386 0 18.18041992 C-1.00274963 18.19054108 -2.00549927 18.20066223 -3.03863525 18.21109009 C-7.74701209 18.13933949 -9.88178522 18.07718864 -13.70605469 15.12411499 C-16.61822281 11.11085421 -16.35771054 9.39561739 -15.5859375 4.53344727 C-11.23585072 -0.59356699 -6.22837061 -0.04053414 0 0 Z " fill="#56A4FF" transform="translate(371.5859375,357.466552734375)"/>
<path d="M0 0 C1.59838715 -0.01292336 1.59838715 -0.01292336 3.22906494 -0.02610779 C6.74931161 -0.04879966 10.26876436 -0.04202293 13.7890625 -0.03295898 C16.23616778 -0.03819287 18.68327103 -0.04446848 21.13037109 -0.05174255 C26.25823461 -0.06215258 31.38582073 -0.05757596 36.51367188 -0.04296875 C43.08804133 -0.02577487 49.66153734 -0.04928175 56.23580933 -0.08445835 C61.28871462 -0.10640726 66.34141009 -0.10499693 71.39434814 -0.09669304 C73.81847085 -0.09587226 76.24260877 -0.10275967 78.66668701 -0.11746407 C82.05438114 -0.13486388 85.44049478 -0.12040373 88.828125 -0.09765625 C89.83087463 -0.10934845 90.83362427 -0.12104065 91.86676025 -0.13308716 C96.51580436 -0.06950249 98.7180671 0.01834106 102.54443359 2.85023499 C104.98612937 6.35445343 105.02337656 8.34441312 104.4140625 12.53344727 C102.65391119 15.71848296 101.91515334 16.36641699 98.4140625 17.53344727 C96.94063077 17.62828751 95.46331725 17.66830968 93.98684692 17.67388916 C92.62840668 17.68245438 92.62840668 17.68245438 91.24252319 17.69119263 C90.25128448 17.69231049 89.26004578 17.69342834 88.23876953 17.69458008 C86.67008118 17.70202744 86.67008118 17.70202744 85.06970215 17.70962524 C81.60375312 17.72425245 78.13784985 17.73104948 74.671875 17.73657227 C72.26675413 17.74232283 69.86163328 17.74808057 67.45651245 17.75384521 C62.41094753 17.7643565 57.36539855 17.77019848 52.31982422 17.77368164 C45.85100316 17.77916955 39.38239226 17.80320358 32.91363716 17.83165359 C27.94484844 17.85026538 22.97611052 17.85548478 18.00728989 17.85701752 C15.62224045 17.86004738 13.23719197 17.86808706 10.85217667 17.8812027 C7.51733592 17.89823387 4.18301097 17.89638999 0.84814453 17.88989258 C-0.13904572 17.89910736 -1.12623596 17.90832214 -2.14334106 17.91781616 C-7.0737989 17.88768395 -10.63358359 17.8493105 -14.5859375 14.53344727 C-16.15294192 11.39943842 -16.43758311 7.90189631 -15.5859375 4.53344727 C-11.07175276 -0.52347483 -6.31492373 -0.04109742 0 0 Z " fill="#56A4FF" transform="translate(371.5859375,377.466552734375)"/>
<path d="M0 0 C5.36787898 1.88869816 8.45991584 4.91983169 11 10 C11.59106487 15.68331608 11.27243416 20.14777003 8 25 C3.29669595 29.35055624 -0.47167687 30.35621669 -6.71484375 30.28515625 C-11.17320993 29.72881312 -13.94033507 27.20582561 -16.8125 23.9375 C-19.63760995 19.32811009 -19.85688039 14.23649129 -19 9 C-14.4525327 1.11388581 -8.73927937 -0.87256455 0 0 Z " fill="#99C8FF" transform="translate(420,267)"/>
<path d="M0 0 C2.875 1.5625 2.875 1.5625 5 4 C5.80740332 8.44071826 5.50331836 10.26790056 2.9375 14 C0 16 0 16 -3.5625 16.125 C-7.66488116 14.78240253 -9.00630003 13.82125828 -11 10 C-11 6.1862249 -10.84985071 3.97575452 -8.3125 1.0625 C-5.24716836 -0.34589562 -3.34404315 -0.47772045 0 0 Z " fill="#59A5FF" transform="translate(418,171)"/>
<path d="M0 0 C0 4.62 0 9.24 0 14 C-1.98567708 13.70703125 -3.97135417 13.4140625 -5.95703125 13.12109375 C-8.2025342 12.86095201 -8.2025342 12.86095201 -11 14 C-11.13489391 11.73078464 -11.23193995 9.4592933 -11.3125 7.1875 C-11.37050781 5.92292969 -11.42851562 4.65835937 -11.48828125 3.35546875 C-11 0 -11 0 -8.85546875 -2.13671875 C-6 -3 -6 -3 0 0 Z " fill="#98C8FF" transform="translate(35,422)"/>
</svg>
